<svg width="36" height="36" viewBox="0 0 36 36" fill="none" xmlns="http://www.w3.org/2000/svg">
<g id="Group">
<rect id="Rectangle" width="36" height="36" rx="18" fill="url(#paint0_linear_3479_10595)"/>
<path id="Vector" d="M21.4152 14.8141C22.1385 14.8141 22.8321 14.5268 23.3436 14.0154C23.855 13.5039 24.1423 12.8103 24.1423 12.087C24.1423 11.3637 23.855 10.6701 23.3436 10.1586C22.8321 9.64718 22.1385 9.35986 21.4152 9.35986C20.6919 9.35986 19.9983 9.64718 19.4868 10.1586C18.9754 10.6701 18.6881 11.3637 18.6881 12.087C18.6881 12.8103 18.9754 13.5039 19.4868 14.0154C19.9983 14.5268 20.6919 14.8141 21.4152 14.8141ZM27.7912 13.5738C23.886 16.3609 22.0872 15.8733 20.3244 15.8177C19.1048 15.7555 18.6881 16.1428 18.6881 16.9958L18.6892 23.5409C18.6892 28.9952 27.8752 27.2825 24.3234 18.1423C26.1462 17.0962 27.6789 15.4872 28.5515 14.4203C28.9999 13.7571 28.521 13.0622 27.7912 13.5738ZM14.8701 9.35986C14.1468 9.35986 13.4532 9.64718 12.9417 10.1586C12.4303 10.6701 12.143 11.3637 12.143 12.087C12.143 12.8103 12.4303 13.5039 12.9417 14.0154C13.4532 14.5268 14.1468 14.8141 14.8701 14.8141C15.5934 14.8141 16.287 14.5268 16.7985 14.0154C17.3099 13.5039 17.5972 12.8103 17.5972 12.087C17.5972 11.3637 17.3099 10.6701 16.7985 10.1586C16.287 9.64718 15.5934 9.35986 14.8701 9.35986ZM15.9609 15.8177C14.1981 15.8733 12.3993 16.3609 8.49407 13.5738C7.7643 13.0622 7.28541 13.7571 7.73375 14.4192C8.60643 15.4872 10.1391 17.0951 11.9619 18.1412C8.41008 27.2815 17.5961 28.9941 17.5961 23.5398L17.5972 16.9947C17.5972 16.1428 17.1805 15.7555 15.9609 15.8177Z" fill="white"/>
</g>
<defs>
<linearGradient id="paint0_linear_3479_10595" x1="36" y1="36.0875" x2="0" y2="0.0874529" gradientUnits="userSpaceOnUse">
<stop stop-color="#13B156"/>
<stop offset="1" stop-color="#32CB73"/>
</linearGradient>
</defs>
</svg>
