<svg width="140" height="140" viewBox="0 0 140 140" fill="none" xmlns="http://www.w3.org/2000/svg">
<g id="Group">
<rect id="Rectangle" width="140" height="140" rx="70" fill="url(#paint0_linear_3269_450)"/>
<path id="Vector" d="M83.281 57.611C86.0938 57.611 88.7913 56.4936 90.7802 54.5047C92.7691 52.5158 93.8865 49.8182 93.8865 47.0055C93.8865 44.1927 92.7691 41.4952 90.7802 39.5063C88.7913 37.5174 86.0938 36.4 83.281 36.4C80.4683 36.4 77.7707 37.5174 75.7818 39.5063C73.7929 41.4952 72.6755 44.1927 72.6755 47.0055C72.6755 49.8182 73.7929 52.5158 75.7818 54.5047C77.7707 56.4936 80.4683 57.611 83.281 57.611ZM108.077 52.7876C92.8896 63.6264 85.8942 61.7302 79.0388 61.5138C74.296 61.272 72.6755 62.778 72.6755 66.0954L72.6798 91.5486C72.6798 112.76 108.403 106.099 94.5907 70.5539C101.679 66.4857 107.64 60.2284 111.033 56.0795C112.777 53.5003 110.915 50.798 108.077 52.7876ZM57.8278 36.4C55.0151 36.4 52.3175 37.5174 50.3286 39.5063C48.3397 41.4952 47.2223 44.1927 47.2223 47.0055C47.2223 49.8182 48.3397 52.5158 50.3286 54.5047C52.3175 56.4936 55.0151 57.611 57.8278 57.611C60.6406 57.611 63.3381 56.4936 65.327 54.5047C67.316 52.5158 68.4333 49.8182 68.4333 47.0055C68.4333 44.1927 67.316 41.4952 65.327 39.5063C63.3381 37.5174 60.6406 36.4 57.8278 36.4ZM62.07 61.5138C55.2146 61.7302 48.2193 63.6264 33.0322 52.7876C30.1942 50.798 28.3318 53.5003 30.0754 56.0753C33.4691 60.2284 39.4294 66.4814 46.5181 70.5497C32.7055 106.095 68.4291 112.755 68.4291 91.5443L68.4333 66.0911C68.4333 62.778 66.8128 61.272 62.07 61.5138Z" fill="white"/>
</g>
<defs>
<linearGradient id="paint0_linear_3269_450" x1="140" y1="140.34" x2="0" y2="0.340095" gradientUnits="userSpaceOnUse">
<stop stop-color="#13B156"/>
<stop offset="1" stop-color="#32CB73"/>
</linearGradient>
</defs>
</svg>
